%TF.GenerationSoftware,KiCad,Pcbnew,9.0.5*%
%TF.CreationDate,2026-01-21T13:47:35-03:00*%
%TF.ProjectId,design_heart,64657369-676e-45f6-9865-6172742e6b69,rev?*%
%TF.SameCoordinates,Original*%
%TF.FileFunction,Legend,Top*%
%TF.FilePolarity,Positive*%
%FSLAX46Y46*%
G04 Gerber Fmt 4.6, Leading zero omitted, Abs format (unit mm)*
G04 Created by KiCad (PCBNEW 9.0.5) date 2026-01-21 13:47:35*
%MOMM*%
%LPD*%
G01*
G04 APERTURE LIST*
%ADD10C,0.150000*%
%ADD11C,0.120000*%
%ADD12C,0.127000*%
%ADD13C,0.200000*%
G04 APERTURE END LIST*
D10*
X164308819Y-88588666D02*
X163832628Y-88921999D01*
X164308819Y-89160094D02*
X163308819Y-89160094D01*
X163308819Y-89160094D02*
X163308819Y-88779142D01*
X163308819Y-88779142D02*
X163356438Y-88683904D01*
X163356438Y-88683904D02*
X163404057Y-88636285D01*
X163404057Y-88636285D02*
X163499295Y-88588666D01*
X163499295Y-88588666D02*
X163642152Y-88588666D01*
X163642152Y-88588666D02*
X163737390Y-88636285D01*
X163737390Y-88636285D02*
X163785009Y-88683904D01*
X163785009Y-88683904D02*
X163832628Y-88779142D01*
X163832628Y-88779142D02*
X163832628Y-89160094D01*
X163308819Y-88255332D02*
X163308819Y-87636285D01*
X163308819Y-87636285D02*
X163689771Y-87969618D01*
X163689771Y-87969618D02*
X163689771Y-87826761D01*
X163689771Y-87826761D02*
X163737390Y-87731523D01*
X163737390Y-87731523D02*
X163785009Y-87683904D01*
X163785009Y-87683904D02*
X163880247Y-87636285D01*
X163880247Y-87636285D02*
X164118342Y-87636285D01*
X164118342Y-87636285D02*
X164213580Y-87683904D01*
X164213580Y-87683904D02*
X164261200Y-87731523D01*
X164261200Y-87731523D02*
X164308819Y-87826761D01*
X164308819Y-87826761D02*
X164308819Y-88112475D01*
X164308819Y-88112475D02*
X164261200Y-88207713D01*
X164261200Y-88207713D02*
X164213580Y-88255332D01*
X190324905Y-86641819D02*
X190324905Y-85641819D01*
X190324905Y-85641819D02*
X190563000Y-85641819D01*
X190563000Y-85641819D02*
X190705857Y-85689438D01*
X190705857Y-85689438D02*
X190801095Y-85784676D01*
X190801095Y-85784676D02*
X190848714Y-85879914D01*
X190848714Y-85879914D02*
X190896333Y-86070390D01*
X190896333Y-86070390D02*
X190896333Y-86213247D01*
X190896333Y-86213247D02*
X190848714Y-86403723D01*
X190848714Y-86403723D02*
X190801095Y-86498961D01*
X190801095Y-86498961D02*
X190705857Y-86594200D01*
X190705857Y-86594200D02*
X190563000Y-86641819D01*
X190563000Y-86641819D02*
X190324905Y-86641819D01*
X191467762Y-86070390D02*
X191372524Y-86022771D01*
X191372524Y-86022771D02*
X191324905Y-85975152D01*
X191324905Y-85975152D02*
X191277286Y-85879914D01*
X191277286Y-85879914D02*
X191277286Y-85832295D01*
X191277286Y-85832295D02*
X191324905Y-85737057D01*
X191324905Y-85737057D02*
X191372524Y-85689438D01*
X191372524Y-85689438D02*
X191467762Y-85641819D01*
X191467762Y-85641819D02*
X191658238Y-85641819D01*
X191658238Y-85641819D02*
X191753476Y-85689438D01*
X191753476Y-85689438D02*
X191801095Y-85737057D01*
X191801095Y-85737057D02*
X191848714Y-85832295D01*
X191848714Y-85832295D02*
X191848714Y-85879914D01*
X191848714Y-85879914D02*
X191801095Y-85975152D01*
X191801095Y-85975152D02*
X191753476Y-86022771D01*
X191753476Y-86022771D02*
X191658238Y-86070390D01*
X191658238Y-86070390D02*
X191467762Y-86070390D01*
X191467762Y-86070390D02*
X191372524Y-86118009D01*
X191372524Y-86118009D02*
X191324905Y-86165628D01*
X191324905Y-86165628D02*
X191277286Y-86260866D01*
X191277286Y-86260866D02*
X191277286Y-86451342D01*
X191277286Y-86451342D02*
X191324905Y-86546580D01*
X191324905Y-86546580D02*
X191372524Y-86594200D01*
X191372524Y-86594200D02*
X191467762Y-86641819D01*
X191467762Y-86641819D02*
X191658238Y-86641819D01*
X191658238Y-86641819D02*
X191753476Y-86594200D01*
X191753476Y-86594200D02*
X191801095Y-86546580D01*
X191801095Y-86546580D02*
X191848714Y-86451342D01*
X191848714Y-86451342D02*
X191848714Y-86260866D01*
X191848714Y-86260866D02*
X191801095Y-86165628D01*
X191801095Y-86165628D02*
X191753476Y-86118009D01*
X191753476Y-86118009D02*
X191658238Y-86070390D01*
X157757905Y-68526819D02*
X157757905Y-67526819D01*
X157757905Y-67526819D02*
X157996000Y-67526819D01*
X157996000Y-67526819D02*
X158138857Y-67574438D01*
X158138857Y-67574438D02*
X158234095Y-67669676D01*
X158234095Y-67669676D02*
X158281714Y-67764914D01*
X158281714Y-67764914D02*
X158329333Y-67955390D01*
X158329333Y-67955390D02*
X158329333Y-68098247D01*
X158329333Y-68098247D02*
X158281714Y-68288723D01*
X158281714Y-68288723D02*
X158234095Y-68383961D01*
X158234095Y-68383961D02*
X158138857Y-68479200D01*
X158138857Y-68479200D02*
X157996000Y-68526819D01*
X157996000Y-68526819D02*
X157757905Y-68526819D01*
X158805524Y-68526819D02*
X158996000Y-68526819D01*
X158996000Y-68526819D02*
X159091238Y-68479200D01*
X159091238Y-68479200D02*
X159138857Y-68431580D01*
X159138857Y-68431580D02*
X159234095Y-68288723D01*
X159234095Y-68288723D02*
X159281714Y-68098247D01*
X159281714Y-68098247D02*
X159281714Y-67717295D01*
X159281714Y-67717295D02*
X159234095Y-67622057D01*
X159234095Y-67622057D02*
X159186476Y-67574438D01*
X159186476Y-67574438D02*
X159091238Y-67526819D01*
X159091238Y-67526819D02*
X158900762Y-67526819D01*
X158900762Y-67526819D02*
X158805524Y-67574438D01*
X158805524Y-67574438D02*
X158757905Y-67622057D01*
X158757905Y-67622057D02*
X158710286Y-67717295D01*
X158710286Y-67717295D02*
X158710286Y-67955390D01*
X158710286Y-67955390D02*
X158757905Y-68050628D01*
X158757905Y-68050628D02*
X158805524Y-68098247D01*
X158805524Y-68098247D02*
X158900762Y-68145866D01*
X158900762Y-68145866D02*
X159091238Y-68145866D01*
X159091238Y-68145866D02*
X159186476Y-68098247D01*
X159186476Y-68098247D02*
X159234095Y-68050628D01*
X159234095Y-68050628D02*
X159281714Y-67955390D01*
X180871905Y-90370819D02*
X180871905Y-89370819D01*
X180871905Y-89370819D02*
X181110000Y-89370819D01*
X181110000Y-89370819D02*
X181252857Y-89418438D01*
X181252857Y-89418438D02*
X181348095Y-89513676D01*
X181348095Y-89513676D02*
X181395714Y-89608914D01*
X181395714Y-89608914D02*
X181443333Y-89799390D01*
X181443333Y-89799390D02*
X181443333Y-89942247D01*
X181443333Y-89942247D02*
X181395714Y-90132723D01*
X181395714Y-90132723D02*
X181348095Y-90227961D01*
X181348095Y-90227961D02*
X181252857Y-90323200D01*
X181252857Y-90323200D02*
X181110000Y-90370819D01*
X181110000Y-90370819D02*
X180871905Y-90370819D01*
X182395714Y-90370819D02*
X181824286Y-90370819D01*
X182110000Y-90370819D02*
X182110000Y-89370819D01*
X182110000Y-89370819D02*
X182014762Y-89513676D01*
X182014762Y-89513676D02*
X181919524Y-89608914D01*
X181919524Y-89608914D02*
X181824286Y-89656533D01*
X143329819Y-99988666D02*
X142853628Y-100321999D01*
X143329819Y-100560094D02*
X142329819Y-100560094D01*
X142329819Y-100560094D02*
X142329819Y-100179142D01*
X142329819Y-100179142D02*
X142377438Y-100083904D01*
X142377438Y-100083904D02*
X142425057Y-100036285D01*
X142425057Y-100036285D02*
X142520295Y-99988666D01*
X142520295Y-99988666D02*
X142663152Y-99988666D01*
X142663152Y-99988666D02*
X142758390Y-100036285D01*
X142758390Y-100036285D02*
X142806009Y-100083904D01*
X142806009Y-100083904D02*
X142853628Y-100179142D01*
X142853628Y-100179142D02*
X142853628Y-100560094D01*
X143329819Y-99036285D02*
X143329819Y-99607713D01*
X143329819Y-99321999D02*
X142329819Y-99321999D01*
X142329819Y-99321999D02*
X142472676Y-99417237D01*
X142472676Y-99417237D02*
X142567914Y-99512475D01*
X142567914Y-99512475D02*
X142615533Y-99607713D01*
X178034333Y-96102819D02*
X177701000Y-95626628D01*
X177462905Y-96102819D02*
X177462905Y-95102819D01*
X177462905Y-95102819D02*
X177843857Y-95102819D01*
X177843857Y-95102819D02*
X177939095Y-95150438D01*
X177939095Y-95150438D02*
X177986714Y-95198057D01*
X177986714Y-95198057D02*
X178034333Y-95293295D01*
X178034333Y-95293295D02*
X178034333Y-95436152D01*
X178034333Y-95436152D02*
X177986714Y-95531390D01*
X177986714Y-95531390D02*
X177939095Y-95579009D01*
X177939095Y-95579009D02*
X177843857Y-95626628D01*
X177843857Y-95626628D02*
X177462905Y-95626628D01*
X178605762Y-95531390D02*
X178510524Y-95483771D01*
X178510524Y-95483771D02*
X178462905Y-95436152D01*
X178462905Y-95436152D02*
X178415286Y-95340914D01*
X178415286Y-95340914D02*
X178415286Y-95293295D01*
X178415286Y-95293295D02*
X178462905Y-95198057D01*
X178462905Y-95198057D02*
X178510524Y-95150438D01*
X178510524Y-95150438D02*
X178605762Y-95102819D01*
X178605762Y-95102819D02*
X178796238Y-95102819D01*
X178796238Y-95102819D02*
X178891476Y-95150438D01*
X178891476Y-95150438D02*
X178939095Y-95198057D01*
X178939095Y-95198057D02*
X178986714Y-95293295D01*
X178986714Y-95293295D02*
X178986714Y-95340914D01*
X178986714Y-95340914D02*
X178939095Y-95436152D01*
X178939095Y-95436152D02*
X178891476Y-95483771D01*
X178891476Y-95483771D02*
X178796238Y-95531390D01*
X178796238Y-95531390D02*
X178605762Y-95531390D01*
X178605762Y-95531390D02*
X178510524Y-95579009D01*
X178510524Y-95579009D02*
X178462905Y-95626628D01*
X178462905Y-95626628D02*
X178415286Y-95721866D01*
X178415286Y-95721866D02*
X178415286Y-95912342D01*
X178415286Y-95912342D02*
X178462905Y-96007580D01*
X178462905Y-96007580D02*
X178510524Y-96055200D01*
X178510524Y-96055200D02*
X178605762Y-96102819D01*
X178605762Y-96102819D02*
X178796238Y-96102819D01*
X178796238Y-96102819D02*
X178891476Y-96055200D01*
X178891476Y-96055200D02*
X178939095Y-96007580D01*
X178939095Y-96007580D02*
X178986714Y-95912342D01*
X178986714Y-95912342D02*
X178986714Y-95721866D01*
X178986714Y-95721866D02*
X178939095Y-95626628D01*
X178939095Y-95626628D02*
X178891476Y-95579009D01*
X178891476Y-95579009D02*
X178796238Y-95531390D01*
X177994333Y-98732819D02*
X177661000Y-98256628D01*
X177422905Y-98732819D02*
X177422905Y-97732819D01*
X177422905Y-97732819D02*
X177803857Y-97732819D01*
X177803857Y-97732819D02*
X177899095Y-97780438D01*
X177899095Y-97780438D02*
X177946714Y-97828057D01*
X177946714Y-97828057D02*
X177994333Y-97923295D01*
X177994333Y-97923295D02*
X177994333Y-98066152D01*
X177994333Y-98066152D02*
X177946714Y-98161390D01*
X177946714Y-98161390D02*
X177899095Y-98209009D01*
X177899095Y-98209009D02*
X177803857Y-98256628D01*
X177803857Y-98256628D02*
X177422905Y-98256628D01*
X178851476Y-97732819D02*
X178661000Y-97732819D01*
X178661000Y-97732819D02*
X178565762Y-97780438D01*
X178565762Y-97780438D02*
X178518143Y-97828057D01*
X178518143Y-97828057D02*
X178422905Y-97970914D01*
X178422905Y-97970914D02*
X178375286Y-98161390D01*
X178375286Y-98161390D02*
X178375286Y-98542342D01*
X178375286Y-98542342D02*
X178422905Y-98637580D01*
X178422905Y-98637580D02*
X178470524Y-98685200D01*
X178470524Y-98685200D02*
X178565762Y-98732819D01*
X178565762Y-98732819D02*
X178756238Y-98732819D01*
X178756238Y-98732819D02*
X178851476Y-98685200D01*
X178851476Y-98685200D02*
X178899095Y-98637580D01*
X178899095Y-98637580D02*
X178946714Y-98542342D01*
X178946714Y-98542342D02*
X178946714Y-98304247D01*
X178946714Y-98304247D02*
X178899095Y-98209009D01*
X178899095Y-98209009D02*
X178851476Y-98161390D01*
X178851476Y-98161390D02*
X178756238Y-98113771D01*
X178756238Y-98113771D02*
X178565762Y-98113771D01*
X178565762Y-98113771D02*
X178470524Y-98161390D01*
X178470524Y-98161390D02*
X178422905Y-98209009D01*
X178422905Y-98209009D02*
X178375286Y-98304247D01*
X124869905Y-86583819D02*
X124869905Y-85583819D01*
X124869905Y-85583819D02*
X125108000Y-85583819D01*
X125108000Y-85583819D02*
X125250857Y-85631438D01*
X125250857Y-85631438D02*
X125346095Y-85726676D01*
X125346095Y-85726676D02*
X125393714Y-85821914D01*
X125393714Y-85821914D02*
X125441333Y-86012390D01*
X125441333Y-86012390D02*
X125441333Y-86155247D01*
X125441333Y-86155247D02*
X125393714Y-86345723D01*
X125393714Y-86345723D02*
X125346095Y-86440961D01*
X125346095Y-86440961D02*
X125250857Y-86536200D01*
X125250857Y-86536200D02*
X125108000Y-86583819D01*
X125108000Y-86583819D02*
X124869905Y-86583819D01*
X126346095Y-85583819D02*
X125869905Y-85583819D01*
X125869905Y-85583819D02*
X125822286Y-86060009D01*
X125822286Y-86060009D02*
X125869905Y-86012390D01*
X125869905Y-86012390D02*
X125965143Y-85964771D01*
X125965143Y-85964771D02*
X126203238Y-85964771D01*
X126203238Y-85964771D02*
X126298476Y-86012390D01*
X126298476Y-86012390D02*
X126346095Y-86060009D01*
X126346095Y-86060009D02*
X126393714Y-86155247D01*
X126393714Y-86155247D02*
X126393714Y-86393342D01*
X126393714Y-86393342D02*
X126346095Y-86488580D01*
X126346095Y-86488580D02*
X126298476Y-86536200D01*
X126298476Y-86536200D02*
X126203238Y-86583819D01*
X126203238Y-86583819D02*
X125965143Y-86583819D01*
X125965143Y-86583819D02*
X125869905Y-86536200D01*
X125869905Y-86536200D02*
X125822286Y-86488580D01*
X174563200Y-89204666D02*
X174629866Y-89004666D01*
X174629866Y-89004666D02*
X174629866Y-88671333D01*
X174629866Y-88671333D02*
X174563200Y-88537999D01*
X174563200Y-88537999D02*
X174496533Y-88471333D01*
X174496533Y-88471333D02*
X174363200Y-88404666D01*
X174363200Y-88404666D02*
X174229866Y-88404666D01*
X174229866Y-88404666D02*
X174096533Y-88471333D01*
X174096533Y-88471333D02*
X174029866Y-88537999D01*
X174029866Y-88537999D02*
X173963200Y-88671333D01*
X173963200Y-88671333D02*
X173896533Y-88937999D01*
X173896533Y-88937999D02*
X173829866Y-89071333D01*
X173829866Y-89071333D02*
X173763200Y-89137999D01*
X173763200Y-89137999D02*
X173629866Y-89204666D01*
X173629866Y-89204666D02*
X173496533Y-89204666D01*
X173496533Y-89204666D02*
X173363200Y-89137999D01*
X173363200Y-89137999D02*
X173296533Y-89071333D01*
X173296533Y-89071333D02*
X173229866Y-88937999D01*
X173229866Y-88937999D02*
X173229866Y-88604666D01*
X173229866Y-88604666D02*
X173296533Y-88404666D01*
X174629866Y-87071333D02*
X174629866Y-87871333D01*
X174629866Y-87471333D02*
X173229866Y-87471333D01*
X173229866Y-87471333D02*
X173429866Y-87604666D01*
X173429866Y-87604666D02*
X173563200Y-87738000D01*
X173563200Y-87738000D02*
X173629866Y-87871333D01*
X155098761Y-81576057D02*
X155003523Y-81528438D01*
X155003523Y-81528438D02*
X154908285Y-81433200D01*
X154908285Y-81433200D02*
X154765428Y-81290342D01*
X154765428Y-81290342D02*
X154670190Y-81242723D01*
X154670190Y-81242723D02*
X154574952Y-81242723D01*
X154622571Y-81480819D02*
X154527333Y-81433200D01*
X154527333Y-81433200D02*
X154432095Y-81337961D01*
X154432095Y-81337961D02*
X154384476Y-81147485D01*
X154384476Y-81147485D02*
X154384476Y-80814152D01*
X154384476Y-80814152D02*
X154432095Y-80623676D01*
X154432095Y-80623676D02*
X154527333Y-80528438D01*
X154527333Y-80528438D02*
X154622571Y-80480819D01*
X154622571Y-80480819D02*
X154813047Y-80480819D01*
X154813047Y-80480819D02*
X154908285Y-80528438D01*
X154908285Y-80528438D02*
X155003523Y-80623676D01*
X155003523Y-80623676D02*
X155051142Y-80814152D01*
X155051142Y-80814152D02*
X155051142Y-81147485D01*
X155051142Y-81147485D02*
X155003523Y-81337961D01*
X155003523Y-81337961D02*
X154908285Y-81433200D01*
X154908285Y-81433200D02*
X154813047Y-81480819D01*
X154813047Y-81480819D02*
X154622571Y-81480819D01*
X155432095Y-80576057D02*
X155479714Y-80528438D01*
X155479714Y-80528438D02*
X155574952Y-80480819D01*
X155574952Y-80480819D02*
X155813047Y-80480819D01*
X155813047Y-80480819D02*
X155908285Y-80528438D01*
X155908285Y-80528438D02*
X155955904Y-80576057D01*
X155955904Y-80576057D02*
X156003523Y-80671295D01*
X156003523Y-80671295D02*
X156003523Y-80766533D01*
X156003523Y-80766533D02*
X155955904Y-80909390D01*
X155955904Y-80909390D02*
X155384476Y-81480819D01*
X155384476Y-81480819D02*
X156003523Y-81480819D01*
X145791819Y-100011666D02*
X145315628Y-100344999D01*
X145791819Y-100583094D02*
X144791819Y-100583094D01*
X144791819Y-100583094D02*
X144791819Y-100202142D01*
X144791819Y-100202142D02*
X144839438Y-100106904D01*
X144839438Y-100106904D02*
X144887057Y-100059285D01*
X144887057Y-100059285D02*
X144982295Y-100011666D01*
X144982295Y-100011666D02*
X145125152Y-100011666D01*
X145125152Y-100011666D02*
X145220390Y-100059285D01*
X145220390Y-100059285D02*
X145268009Y-100106904D01*
X145268009Y-100106904D02*
X145315628Y-100202142D01*
X145315628Y-100202142D02*
X145315628Y-100583094D01*
X144791819Y-99678332D02*
X144791819Y-99011666D01*
X144791819Y-99011666D02*
X145791819Y-99440237D01*
X163849666Y-108911819D02*
X163849666Y-109626104D01*
X163849666Y-109626104D02*
X163802047Y-109768961D01*
X163802047Y-109768961D02*
X163706809Y-109864200D01*
X163706809Y-109864200D02*
X163563952Y-109911819D01*
X163563952Y-109911819D02*
X163468714Y-109911819D01*
X164849666Y-109911819D02*
X164278238Y-109911819D01*
X164563952Y-109911819D02*
X164563952Y-108911819D01*
X164563952Y-108911819D02*
X164468714Y-109054676D01*
X164468714Y-109054676D02*
X164373476Y-109149914D01*
X164373476Y-109149914D02*
X164278238Y-109197533D01*
X154491819Y-91488904D02*
X155301342Y-91488904D01*
X155301342Y-91488904D02*
X155396580Y-91441285D01*
X155396580Y-91441285D02*
X155444200Y-91393666D01*
X155444200Y-91393666D02*
X155491819Y-91298428D01*
X155491819Y-91298428D02*
X155491819Y-91107952D01*
X155491819Y-91107952D02*
X155444200Y-91012714D01*
X155444200Y-91012714D02*
X155396580Y-90965095D01*
X155396580Y-90965095D02*
X155301342Y-90917476D01*
X155301342Y-90917476D02*
X154491819Y-90917476D01*
X154587057Y-90488904D02*
X154539438Y-90441285D01*
X154539438Y-90441285D02*
X154491819Y-90346047D01*
X154491819Y-90346047D02*
X154491819Y-90107952D01*
X154491819Y-90107952D02*
X154539438Y-90012714D01*
X154539438Y-90012714D02*
X154587057Y-89965095D01*
X154587057Y-89965095D02*
X154682295Y-89917476D01*
X154682295Y-89917476D02*
X154777533Y-89917476D01*
X154777533Y-89917476D02*
X154920390Y-89965095D01*
X154920390Y-89965095D02*
X155491819Y-90536523D01*
X155491819Y-90536523D02*
X155491819Y-89917476D01*
X168018333Y-96212819D02*
X167685000Y-95736628D01*
X167446905Y-96212819D02*
X167446905Y-95212819D01*
X167446905Y-95212819D02*
X167827857Y-95212819D01*
X167827857Y-95212819D02*
X167923095Y-95260438D01*
X167923095Y-95260438D02*
X167970714Y-95308057D01*
X167970714Y-95308057D02*
X168018333Y-95403295D01*
X168018333Y-95403295D02*
X168018333Y-95546152D01*
X168018333Y-95546152D02*
X167970714Y-95641390D01*
X167970714Y-95641390D02*
X167923095Y-95689009D01*
X167923095Y-95689009D02*
X167827857Y-95736628D01*
X167827857Y-95736628D02*
X167446905Y-95736628D01*
X168923095Y-95212819D02*
X168446905Y-95212819D01*
X168446905Y-95212819D02*
X168399286Y-95689009D01*
X168399286Y-95689009D02*
X168446905Y-95641390D01*
X168446905Y-95641390D02*
X168542143Y-95593771D01*
X168542143Y-95593771D02*
X168780238Y-95593771D01*
X168780238Y-95593771D02*
X168875476Y-95641390D01*
X168875476Y-95641390D02*
X168923095Y-95689009D01*
X168923095Y-95689009D02*
X168970714Y-95784247D01*
X168970714Y-95784247D02*
X168970714Y-96022342D01*
X168970714Y-96022342D02*
X168923095Y-96117580D01*
X168923095Y-96117580D02*
X168875476Y-96165200D01*
X168875476Y-96165200D02*
X168780238Y-96212819D01*
X168780238Y-96212819D02*
X168542143Y-96212819D01*
X168542143Y-96212819D02*
X168446905Y-96165200D01*
X168446905Y-96165200D02*
X168399286Y-96117580D01*
X139138819Y-84288238D02*
X138662628Y-84621571D01*
X139138819Y-84859666D02*
X138138819Y-84859666D01*
X138138819Y-84859666D02*
X138138819Y-84478714D01*
X138138819Y-84478714D02*
X138186438Y-84383476D01*
X138186438Y-84383476D02*
X138234057Y-84335857D01*
X138234057Y-84335857D02*
X138329295Y-84288238D01*
X138329295Y-84288238D02*
X138472152Y-84288238D01*
X138472152Y-84288238D02*
X138567390Y-84335857D01*
X138567390Y-84335857D02*
X138615009Y-84383476D01*
X138615009Y-84383476D02*
X138662628Y-84478714D01*
X138662628Y-84478714D02*
X138662628Y-84859666D01*
X138138819Y-84002523D02*
X139138819Y-83669190D01*
X139138819Y-83669190D02*
X138138819Y-83335857D01*
X138472152Y-82573952D02*
X139138819Y-82573952D01*
X138091200Y-82812047D02*
X138805485Y-83050142D01*
X138805485Y-83050142D02*
X138805485Y-82431095D01*
X155535333Y-84956819D02*
X155202000Y-84480628D01*
X154963905Y-84956819D02*
X154963905Y-83956819D01*
X154963905Y-83956819D02*
X155344857Y-83956819D01*
X155344857Y-83956819D02*
X155440095Y-84004438D01*
X155440095Y-84004438D02*
X155487714Y-84052057D01*
X155487714Y-84052057D02*
X155535333Y-84147295D01*
X155535333Y-84147295D02*
X155535333Y-84290152D01*
X155535333Y-84290152D02*
X155487714Y-84385390D01*
X155487714Y-84385390D02*
X155440095Y-84433009D01*
X155440095Y-84433009D02*
X155344857Y-84480628D01*
X155344857Y-84480628D02*
X154963905Y-84480628D01*
X155916286Y-84052057D02*
X155963905Y-84004438D01*
X155963905Y-84004438D02*
X156059143Y-83956819D01*
X156059143Y-83956819D02*
X156297238Y-83956819D01*
X156297238Y-83956819D02*
X156392476Y-84004438D01*
X156392476Y-84004438D02*
X156440095Y-84052057D01*
X156440095Y-84052057D02*
X156487714Y-84147295D01*
X156487714Y-84147295D02*
X156487714Y-84242533D01*
X156487714Y-84242533D02*
X156440095Y-84385390D01*
X156440095Y-84385390D02*
X155868667Y-84956819D01*
X155868667Y-84956819D02*
X156487714Y-84956819D01*
X189705714Y-91134819D02*
X189705714Y-90134819D01*
X189705714Y-90134819D02*
X189943809Y-90134819D01*
X189943809Y-90134819D02*
X190086666Y-90182438D01*
X190086666Y-90182438D02*
X190181904Y-90277676D01*
X190181904Y-90277676D02*
X190229523Y-90372914D01*
X190229523Y-90372914D02*
X190277142Y-90563390D01*
X190277142Y-90563390D02*
X190277142Y-90706247D01*
X190277142Y-90706247D02*
X190229523Y-90896723D01*
X190229523Y-90896723D02*
X190181904Y-90991961D01*
X190181904Y-90991961D02*
X190086666Y-91087200D01*
X190086666Y-91087200D02*
X189943809Y-91134819D01*
X189943809Y-91134819D02*
X189705714Y-91134819D01*
X191229523Y-91134819D02*
X190658095Y-91134819D01*
X190943809Y-91134819D02*
X190943809Y-90134819D01*
X190943809Y-90134819D02*
X190848571Y-90277676D01*
X190848571Y-90277676D02*
X190753333Y-90372914D01*
X190753333Y-90372914D02*
X190658095Y-90420533D01*
X192181904Y-91134819D02*
X191610476Y-91134819D01*
X191896190Y-91134819D02*
X191896190Y-90134819D01*
X191896190Y-90134819D02*
X191800952Y-90277676D01*
X191800952Y-90277676D02*
X191705714Y-90372914D01*
X191705714Y-90372914D02*
X191610476Y-90420533D01*
X145740714Y-120614819D02*
X145740714Y-119614819D01*
X145740714Y-119614819D02*
X145978809Y-119614819D01*
X145978809Y-119614819D02*
X146121666Y-119662438D01*
X146121666Y-119662438D02*
X146216904Y-119757676D01*
X146216904Y-119757676D02*
X146264523Y-119852914D01*
X146264523Y-119852914D02*
X146312142Y-120043390D01*
X146312142Y-120043390D02*
X146312142Y-120186247D01*
X146312142Y-120186247D02*
X146264523Y-120376723D01*
X146264523Y-120376723D02*
X146216904Y-120471961D01*
X146216904Y-120471961D02*
X146121666Y-120567200D01*
X146121666Y-120567200D02*
X145978809Y-120614819D01*
X145978809Y-120614819D02*
X145740714Y-120614819D01*
X147264523Y-120614819D02*
X146693095Y-120614819D01*
X146978809Y-120614819D02*
X146978809Y-119614819D01*
X146978809Y-119614819D02*
X146883571Y-119757676D01*
X146883571Y-119757676D02*
X146788333Y-119852914D01*
X146788333Y-119852914D02*
X146693095Y-119900533D01*
X147597857Y-119614819D02*
X148216904Y-119614819D01*
X148216904Y-119614819D02*
X147883571Y-119995771D01*
X147883571Y-119995771D02*
X148026428Y-119995771D01*
X148026428Y-119995771D02*
X148121666Y-120043390D01*
X148121666Y-120043390D02*
X148169285Y-120091009D01*
X148169285Y-120091009D02*
X148216904Y-120186247D01*
X148216904Y-120186247D02*
X148216904Y-120424342D01*
X148216904Y-120424342D02*
X148169285Y-120519580D01*
X148169285Y-120519580D02*
X148121666Y-120567200D01*
X148121666Y-120567200D02*
X148026428Y-120614819D01*
X148026428Y-120614819D02*
X147740714Y-120614819D01*
X147740714Y-120614819D02*
X147645476Y-120567200D01*
X147645476Y-120567200D02*
X147597857Y-120519580D01*
X179853580Y-79163666D02*
X179901200Y-79211285D01*
X179901200Y-79211285D02*
X179948819Y-79354142D01*
X179948819Y-79354142D02*
X179948819Y-79449380D01*
X179948819Y-79449380D02*
X179901200Y-79592237D01*
X179901200Y-79592237D02*
X179805961Y-79687475D01*
X179805961Y-79687475D02*
X179710723Y-79735094D01*
X179710723Y-79735094D02*
X179520247Y-79782713D01*
X179520247Y-79782713D02*
X179377390Y-79782713D01*
X179377390Y-79782713D02*
X179186914Y-79735094D01*
X179186914Y-79735094D02*
X179091676Y-79687475D01*
X179091676Y-79687475D02*
X178996438Y-79592237D01*
X178996438Y-79592237D02*
X178948819Y-79449380D01*
X178948819Y-79449380D02*
X178948819Y-79354142D01*
X178948819Y-79354142D02*
X178996438Y-79211285D01*
X178996438Y-79211285D02*
X179044057Y-79163666D01*
X179948819Y-78211285D02*
X179948819Y-78782713D01*
X179948819Y-78496999D02*
X178948819Y-78496999D01*
X178948819Y-78496999D02*
X179091676Y-78592237D01*
X179091676Y-78592237D02*
X179186914Y-78687475D01*
X179186914Y-78687475D02*
X179234533Y-78782713D01*
X179306905Y-101844819D02*
X179306905Y-100844819D01*
X179306905Y-100844819D02*
X179545000Y-100844819D01*
X179545000Y-100844819D02*
X179687857Y-100892438D01*
X179687857Y-100892438D02*
X179783095Y-100987676D01*
X179783095Y-100987676D02*
X179830714Y-101082914D01*
X179830714Y-101082914D02*
X179878333Y-101273390D01*
X179878333Y-101273390D02*
X179878333Y-101416247D01*
X179878333Y-101416247D02*
X179830714Y-101606723D01*
X179830714Y-101606723D02*
X179783095Y-101701961D01*
X179783095Y-101701961D02*
X179687857Y-101797200D01*
X179687857Y-101797200D02*
X179545000Y-101844819D01*
X179545000Y-101844819D02*
X179306905Y-101844819D01*
X180211667Y-100844819D02*
X180878333Y-100844819D01*
X180878333Y-100844819D02*
X180449762Y-101844819D01*
X167048819Y-88428666D02*
X166572628Y-88761999D01*
X167048819Y-89000094D02*
X166048819Y-89000094D01*
X166048819Y-89000094D02*
X166048819Y-88619142D01*
X166048819Y-88619142D02*
X166096438Y-88523904D01*
X166096438Y-88523904D02*
X166144057Y-88476285D01*
X166144057Y-88476285D02*
X166239295Y-88428666D01*
X166239295Y-88428666D02*
X166382152Y-88428666D01*
X166382152Y-88428666D02*
X166477390Y-88476285D01*
X166477390Y-88476285D02*
X166525009Y-88523904D01*
X166525009Y-88523904D02*
X166572628Y-88619142D01*
X166572628Y-88619142D02*
X166572628Y-89000094D01*
X166382152Y-87571523D02*
X167048819Y-87571523D01*
X166001200Y-87809618D02*
X166715485Y-88047713D01*
X166715485Y-88047713D02*
X166715485Y-87428666D01*
X157251905Y-122734819D02*
X157251905Y-121734819D01*
X157251905Y-121734819D02*
X157490000Y-121734819D01*
X157490000Y-121734819D02*
X157632857Y-121782438D01*
X157632857Y-121782438D02*
X157728095Y-121877676D01*
X157728095Y-121877676D02*
X157775714Y-121972914D01*
X157775714Y-121972914D02*
X157823333Y-122163390D01*
X157823333Y-122163390D02*
X157823333Y-122306247D01*
X157823333Y-122306247D02*
X157775714Y-122496723D01*
X157775714Y-122496723D02*
X157728095Y-122591961D01*
X157728095Y-122591961D02*
X157632857Y-122687200D01*
X157632857Y-122687200D02*
X157490000Y-122734819D01*
X157490000Y-122734819D02*
X157251905Y-122734819D01*
X158156667Y-121734819D02*
X158775714Y-121734819D01*
X158775714Y-121734819D02*
X158442381Y-122115771D01*
X158442381Y-122115771D02*
X158585238Y-122115771D01*
X158585238Y-122115771D02*
X158680476Y-122163390D01*
X158680476Y-122163390D02*
X158728095Y-122211009D01*
X158728095Y-122211009D02*
X158775714Y-122306247D01*
X158775714Y-122306247D02*
X158775714Y-122544342D01*
X158775714Y-122544342D02*
X158728095Y-122639580D01*
X158728095Y-122639580D02*
X158680476Y-122687200D01*
X158680476Y-122687200D02*
X158585238Y-122734819D01*
X158585238Y-122734819D02*
X158299524Y-122734819D01*
X158299524Y-122734819D02*
X158204286Y-122687200D01*
X158204286Y-122687200D02*
X158156667Y-122639580D01*
X168100714Y-120614819D02*
X168100714Y-119614819D01*
X168100714Y-119614819D02*
X168338809Y-119614819D01*
X168338809Y-119614819D02*
X168481666Y-119662438D01*
X168481666Y-119662438D02*
X168576904Y-119757676D01*
X168576904Y-119757676D02*
X168624523Y-119852914D01*
X168624523Y-119852914D02*
X168672142Y-120043390D01*
X168672142Y-120043390D02*
X168672142Y-120186247D01*
X168672142Y-120186247D02*
X168624523Y-120376723D01*
X168624523Y-120376723D02*
X168576904Y-120471961D01*
X168576904Y-120471961D02*
X168481666Y-120567200D01*
X168481666Y-120567200D02*
X168338809Y-120614819D01*
X168338809Y-120614819D02*
X168100714Y-120614819D01*
X169624523Y-120614819D02*
X169053095Y-120614819D01*
X169338809Y-120614819D02*
X169338809Y-119614819D01*
X169338809Y-119614819D02*
X169243571Y-119757676D01*
X169243571Y-119757676D02*
X169148333Y-119852914D01*
X169148333Y-119852914D02*
X169053095Y-119900533D01*
X170243571Y-119614819D02*
X170338809Y-119614819D01*
X170338809Y-119614819D02*
X170434047Y-119662438D01*
X170434047Y-119662438D02*
X170481666Y-119710057D01*
X170481666Y-119710057D02*
X170529285Y-119805295D01*
X170529285Y-119805295D02*
X170576904Y-119995771D01*
X170576904Y-119995771D02*
X170576904Y-120233866D01*
X170576904Y-120233866D02*
X170529285Y-120424342D01*
X170529285Y-120424342D02*
X170481666Y-120519580D01*
X170481666Y-120519580D02*
X170434047Y-120567200D01*
X170434047Y-120567200D02*
X170338809Y-120614819D01*
X170338809Y-120614819D02*
X170243571Y-120614819D01*
X170243571Y-120614819D02*
X170148333Y-120567200D01*
X170148333Y-120567200D02*
X170100714Y-120519580D01*
X170100714Y-120519580D02*
X170053095Y-120424342D01*
X170053095Y-120424342D02*
X170005476Y-120233866D01*
X170005476Y-120233866D02*
X170005476Y-119995771D01*
X170005476Y-119995771D02*
X170053095Y-119805295D01*
X170053095Y-119805295D02*
X170100714Y-119710057D01*
X170100714Y-119710057D02*
X170148333Y-119662438D01*
X170148333Y-119662438D02*
X170243571Y-119614819D01*
X169330761Y-75384819D02*
X168997428Y-74908628D01*
X168759333Y-75384819D02*
X168759333Y-74384819D01*
X168759333Y-74384819D02*
X169140285Y-74384819D01*
X169140285Y-74384819D02*
X169235523Y-74432438D01*
X169235523Y-74432438D02*
X169283142Y-74480057D01*
X169283142Y-74480057D02*
X169330761Y-74575295D01*
X169330761Y-74575295D02*
X169330761Y-74718152D01*
X169330761Y-74718152D02*
X169283142Y-74813390D01*
X169283142Y-74813390D02*
X169235523Y-74861009D01*
X169235523Y-74861009D02*
X169140285Y-74908628D01*
X169140285Y-74908628D02*
X168759333Y-74908628D01*
X169616476Y-74384819D02*
X169949809Y-75384819D01*
X169949809Y-75384819D02*
X170283142Y-74384819D01*
X170521238Y-74384819D02*
X171140285Y-74384819D01*
X171140285Y-74384819D02*
X170806952Y-74765771D01*
X170806952Y-74765771D02*
X170949809Y-74765771D01*
X170949809Y-74765771D02*
X171045047Y-74813390D01*
X171045047Y-74813390D02*
X171092666Y-74861009D01*
X171092666Y-74861009D02*
X171140285Y-74956247D01*
X171140285Y-74956247D02*
X171140285Y-75194342D01*
X171140285Y-75194342D02*
X171092666Y-75289580D01*
X171092666Y-75289580D02*
X171045047Y-75337200D01*
X171045047Y-75337200D02*
X170949809Y-75384819D01*
X170949809Y-75384819D02*
X170664095Y-75384819D01*
X170664095Y-75384819D02*
X170568857Y-75337200D01*
X170568857Y-75337200D02*
X170521238Y-75289580D01*
X138330714Y-71334819D02*
X138330714Y-70334819D01*
X138330714Y-70334819D02*
X138568809Y-70334819D01*
X138568809Y-70334819D02*
X138711666Y-70382438D01*
X138711666Y-70382438D02*
X138806904Y-70477676D01*
X138806904Y-70477676D02*
X138854523Y-70572914D01*
X138854523Y-70572914D02*
X138902142Y-70763390D01*
X138902142Y-70763390D02*
X138902142Y-70906247D01*
X138902142Y-70906247D02*
X138854523Y-71096723D01*
X138854523Y-71096723D02*
X138806904Y-71191961D01*
X138806904Y-71191961D02*
X138711666Y-71287200D01*
X138711666Y-71287200D02*
X138568809Y-71334819D01*
X138568809Y-71334819D02*
X138330714Y-71334819D01*
X139854523Y-71334819D02*
X139283095Y-71334819D01*
X139568809Y-71334819D02*
X139568809Y-70334819D01*
X139568809Y-70334819D02*
X139473571Y-70477676D01*
X139473571Y-70477676D02*
X139378333Y-70572914D01*
X139378333Y-70572914D02*
X139283095Y-70620533D01*
X140759285Y-70334819D02*
X140283095Y-70334819D01*
X140283095Y-70334819D02*
X140235476Y-70811009D01*
X140235476Y-70811009D02*
X140283095Y-70763390D01*
X140283095Y-70763390D02*
X140378333Y-70715771D01*
X140378333Y-70715771D02*
X140616428Y-70715771D01*
X140616428Y-70715771D02*
X140711666Y-70763390D01*
X140711666Y-70763390D02*
X140759285Y-70811009D01*
X140759285Y-70811009D02*
X140806904Y-70906247D01*
X140806904Y-70906247D02*
X140806904Y-71144342D01*
X140806904Y-71144342D02*
X140759285Y-71239580D01*
X140759285Y-71239580D02*
X140711666Y-71287200D01*
X140711666Y-71287200D02*
X140616428Y-71334819D01*
X140616428Y-71334819D02*
X140378333Y-71334819D01*
X140378333Y-71334819D02*
X140283095Y-71287200D01*
X140283095Y-71287200D02*
X140235476Y-71239580D01*
X175590714Y-63414819D02*
X175590714Y-62414819D01*
X175590714Y-62414819D02*
X175828809Y-62414819D01*
X175828809Y-62414819D02*
X175971666Y-62462438D01*
X175971666Y-62462438D02*
X176066904Y-62557676D01*
X176066904Y-62557676D02*
X176114523Y-62652914D01*
X176114523Y-62652914D02*
X176162142Y-62843390D01*
X176162142Y-62843390D02*
X176162142Y-62986247D01*
X176162142Y-62986247D02*
X176114523Y-63176723D01*
X176114523Y-63176723D02*
X176066904Y-63271961D01*
X176066904Y-63271961D02*
X175971666Y-63367200D01*
X175971666Y-63367200D02*
X175828809Y-63414819D01*
X175828809Y-63414819D02*
X175590714Y-63414819D01*
X177114523Y-63414819D02*
X176543095Y-63414819D01*
X176828809Y-63414819D02*
X176828809Y-62414819D01*
X176828809Y-62414819D02*
X176733571Y-62557676D01*
X176733571Y-62557676D02*
X176638333Y-62652914D01*
X176638333Y-62652914D02*
X176543095Y-62700533D01*
X177495476Y-62510057D02*
X177543095Y-62462438D01*
X177543095Y-62462438D02*
X177638333Y-62414819D01*
X177638333Y-62414819D02*
X177876428Y-62414819D01*
X177876428Y-62414819D02*
X177971666Y-62462438D01*
X177971666Y-62462438D02*
X178019285Y-62510057D01*
X178019285Y-62510057D02*
X178066904Y-62605295D01*
X178066904Y-62605295D02*
X178066904Y-62700533D01*
X178066904Y-62700533D02*
X178019285Y-62843390D01*
X178019285Y-62843390D02*
X177447857Y-63414819D01*
X177447857Y-63414819D02*
X178066904Y-63414819D01*
X124383714Y-91134819D02*
X124383714Y-90134819D01*
X124383714Y-90134819D02*
X124621809Y-90134819D01*
X124621809Y-90134819D02*
X124764666Y-90182438D01*
X124764666Y-90182438D02*
X124859904Y-90277676D01*
X124859904Y-90277676D02*
X124907523Y-90372914D01*
X124907523Y-90372914D02*
X124955142Y-90563390D01*
X124955142Y-90563390D02*
X124955142Y-90706247D01*
X124955142Y-90706247D02*
X124907523Y-90896723D01*
X124907523Y-90896723D02*
X124859904Y-90991961D01*
X124859904Y-90991961D02*
X124764666Y-91087200D01*
X124764666Y-91087200D02*
X124621809Y-91134819D01*
X124621809Y-91134819D02*
X124383714Y-91134819D01*
X125907523Y-91134819D02*
X125336095Y-91134819D01*
X125621809Y-91134819D02*
X125621809Y-90134819D01*
X125621809Y-90134819D02*
X125526571Y-90277676D01*
X125526571Y-90277676D02*
X125431333Y-90372914D01*
X125431333Y-90372914D02*
X125336095Y-90420533D01*
X126764666Y-90468152D02*
X126764666Y-91134819D01*
X126526571Y-90087200D02*
X126288476Y-90801485D01*
X126288476Y-90801485D02*
X126907523Y-90801485D01*
X135306905Y-101844819D02*
X135306905Y-100844819D01*
X135306905Y-100844819D02*
X135545000Y-100844819D01*
X135545000Y-100844819D02*
X135687857Y-100892438D01*
X135687857Y-100892438D02*
X135783095Y-100987676D01*
X135783095Y-100987676D02*
X135830714Y-101082914D01*
X135830714Y-101082914D02*
X135878333Y-101273390D01*
X135878333Y-101273390D02*
X135878333Y-101416247D01*
X135878333Y-101416247D02*
X135830714Y-101606723D01*
X135830714Y-101606723D02*
X135783095Y-101701961D01*
X135783095Y-101701961D02*
X135687857Y-101797200D01*
X135687857Y-101797200D02*
X135545000Y-101844819D01*
X135545000Y-101844819D02*
X135306905Y-101844819D01*
X136735476Y-101178152D02*
X136735476Y-101844819D01*
X136497381Y-100797200D02*
X136259286Y-101511485D01*
X136259286Y-101511485D02*
X136878333Y-101511485D01*
D11*
%TO.C,R3*%
X164084000Y-85522000D02*
X164084000Y-86472000D01*
X164084000Y-91262000D02*
X164084000Y-90312000D01*
X163164000Y-90312000D02*
X165004000Y-90312000D01*
X165004000Y-86472000D01*
X163164000Y-86472000D01*
X163164000Y-90312000D01*
%TO.C,D8*%
X193623000Y-83772000D02*
X193623000Y-80682000D01*
X188073000Y-82227000D02*
G75*
G02*
X193623000Y-80682170I2990000J0D01*
G01*
X193623000Y-83771830D02*
G75*
G02*
X188073000Y-82227000I-2560000J1544830D01*
G01*
X193563000Y-82227000D02*
G75*
G02*
X188563000Y-82227000I-2500000J0D01*
G01*
X188563000Y-82227000D02*
G75*
G02*
X193563000Y-82227000I2500000J0D01*
G01*
%TO.C,D9*%
X155931000Y-68559000D02*
X155931000Y-71649000D01*
X155931000Y-68559170D02*
G75*
G02*
X161481000Y-70104000I2560000J-1544830D01*
G01*
X161481000Y-70104000D02*
G75*
G02*
X155931000Y-71648830I-2990000J0D01*
G01*
X160991000Y-70104000D02*
G75*
G02*
X155991000Y-70104000I-2500000J0D01*
G01*
X155991000Y-70104000D02*
G75*
G02*
X160991000Y-70104000I2500000J0D01*
G01*
%TO.C,D1*%
X184302000Y-89556000D02*
X184302000Y-86466000D01*
X178752000Y-88011000D02*
G75*
G02*
X184302000Y-86466170I2990000J0D01*
G01*
X184302000Y-89555830D02*
G75*
G02*
X178752000Y-88011000I-2560000J1544830D01*
G01*
X184242000Y-88011000D02*
G75*
G02*
X179242000Y-88011000I-2500000J0D01*
G01*
X179242000Y-88011000D02*
G75*
G02*
X184242000Y-88011000I2500000J0D01*
G01*
%TO.C,R1*%
X142621000Y-96952000D02*
X142621000Y-97902000D01*
X142621000Y-102692000D02*
X142621000Y-101742000D01*
X143541000Y-97902000D02*
X141701000Y-97902000D01*
X141701000Y-101742000D01*
X143541000Y-101742000D01*
X143541000Y-97902000D01*
%TO.C,R8*%
X175311000Y-95758000D02*
X176261000Y-95758000D01*
X181051000Y-95758000D02*
X180101000Y-95758000D01*
X176261000Y-94838000D02*
X180101000Y-94838000D01*
X180101000Y-96678000D01*
X176261000Y-96678000D01*
X176261000Y-94838000D01*
%TO.C,R6*%
X175311000Y-98298000D02*
X176261000Y-98298000D01*
X181051000Y-98298000D02*
X180101000Y-98298000D01*
X176261000Y-97378000D02*
X180101000Y-97378000D01*
X180101000Y-99218000D01*
X176261000Y-99218000D01*
X176261000Y-97378000D01*
%TO.C,D5*%
X128168000Y-83714000D02*
X128168000Y-80624000D01*
X122618000Y-82169000D02*
G75*
G02*
X128168000Y-80624170I2990000J0D01*
G01*
X128168000Y-83713830D02*
G75*
G02*
X122618000Y-82169000I-2560000J1544830D01*
G01*
X128108000Y-82169000D02*
G75*
G02*
X123108000Y-82169000I-2500000J0D01*
G01*
X123108000Y-82169000D02*
G75*
G02*
X128108000Y-82169000I2500000J0D01*
G01*
D12*
%TO.C,S1*%
X170363000Y-84892000D02*
X177363000Y-84892000D01*
X170363000Y-85392000D02*
X170363000Y-84892000D01*
X170363000Y-91892000D02*
X170363000Y-91392000D01*
X177363000Y-85392000D02*
X177363000Y-84892000D01*
X177363000Y-91892000D02*
X170363000Y-91892000D01*
X177363000Y-91892000D02*
X177363000Y-91392000D01*
D13*
X169963000Y-90432000D02*
G75*
G02*
X169763000Y-90432000I-100000J0D01*
G01*
X169763000Y-90432000D02*
G75*
G02*
X169963000Y-90432000I100000J0D01*
G01*
D11*
%TO.C,Q2*%
X156994000Y-77652000D02*
X153394000Y-77652000D01*
X152869816Y-78379205D02*
G75*
G02*
X153394000Y-77652000I2324184J-1122795D01*
G01*
X155194000Y-82102000D02*
G75*
G02*
X152837600Y-80600807I0J2600000D01*
G01*
X156994000Y-77652000D02*
G75*
G02*
X157518184Y-78379205I-1800000J-1850000D01*
G01*
X157550400Y-80600807D02*
G75*
G02*
X155194000Y-82102000I-2356400J1098807D01*
G01*
%TO.C,R7*%
X145415000Y-96952000D02*
X145415000Y-97902000D01*
X145415000Y-102692000D02*
X145415000Y-101742000D01*
X146335000Y-97902000D02*
X144495000Y-97902000D01*
X144495000Y-101742000D01*
X146335000Y-101742000D01*
X146335000Y-97902000D01*
%TO.C,J1*%
X160563000Y-101717000D02*
X165633000Y-101717000D01*
X160563000Y-108457000D02*
X160563000Y-101717000D01*
X166233000Y-101717000D02*
X167803000Y-101717000D01*
X167803000Y-101717000D02*
X167803000Y-108457000D01*
X167803000Y-103337000D02*
X160563000Y-103337000D01*
X167803000Y-108457000D02*
X160563000Y-108457000D01*
X165933000Y-101717000D02*
X165493000Y-101107000D01*
X166373000Y-101107000D01*
X165933000Y-101717000D01*
G36*
X165933000Y-101717000D02*
G01*
X165493000Y-101107000D01*
X166373000Y-101107000D01*
X165933000Y-101717000D01*
G37*
%TO.C,U2*%
X152417000Y-87697000D02*
X152417000Y-97977000D01*
X152417000Y-97977000D02*
X157717000Y-97977000D01*
X154067000Y-87697000D02*
X152417000Y-87697000D01*
X157717000Y-87697000D02*
X156067000Y-87697000D01*
X157717000Y-97977000D02*
X157717000Y-87697000D01*
X149927000Y-87637000D02*
X160207000Y-87637000D01*
X160207000Y-98037000D01*
X149927000Y-98037000D01*
X149927000Y-87637000D01*
X156067000Y-87697000D02*
G75*
G02*
X154067000Y-87697000I-1000000J0D01*
G01*
%TO.C,R5*%
X165405000Y-95758000D02*
X166355000Y-95758000D01*
X171145000Y-95758000D02*
X170195000Y-95758000D01*
X166355000Y-94838000D02*
X170195000Y-94838000D01*
X170195000Y-96678000D01*
X166355000Y-96678000D01*
X166355000Y-94838000D01*
%TO.C,RV4*%
X136305000Y-78573000D02*
X139901000Y-78573000D01*
X136305000Y-88813000D02*
X136305000Y-78573000D01*
X136305000Y-88813000D02*
X137400000Y-88813000D01*
X140252000Y-88813000D02*
X142401000Y-88813000D01*
X142751000Y-78573000D02*
X146346000Y-78573000D01*
X145251000Y-88813000D02*
X146346000Y-88813000D01*
X146346000Y-88813000D02*
X146346000Y-78573000D01*
%TO.C,R2*%
X152959000Y-84582000D02*
X153909000Y-84582000D01*
X158699000Y-84582000D02*
X157749000Y-84582000D01*
X153909000Y-83662000D02*
X157749000Y-83662000D01*
X157749000Y-85502000D01*
X153909000Y-85502000D01*
X153909000Y-83662000D01*
%TO.C,D11*%
X188360000Y-93095000D02*
X188360000Y-96185000D01*
X188360000Y-93095170D02*
G75*
G02*
X193910000Y-94640000I2560000J-1544830D01*
G01*
X193910000Y-94640000D02*
G75*
G02*
X188360000Y-96184830I-2990000J0D01*
G01*
X193420000Y-94640000D02*
G75*
G02*
X188420000Y-94640000I-2500000J0D01*
G01*
X188420000Y-94640000D02*
G75*
G02*
X193420000Y-94640000I2500000J0D01*
G01*
%TO.C,D13*%
X149515000Y-117745000D02*
X149515000Y-114655000D01*
X143965000Y-116200000D02*
G75*
G02*
X149515000Y-114655170I2990000J0D01*
G01*
X149515000Y-117744830D02*
G75*
G02*
X143965000Y-116200000I-2560000J1544830D01*
G01*
X149455000Y-116200000D02*
G75*
G02*
X144455000Y-116200000I-2500000J0D01*
G01*
X144455000Y-116200000D02*
G75*
G02*
X149455000Y-116200000I2500000J0D01*
G01*
%TO.C,C1*%
X185984000Y-78867000D02*
G75*
G02*
X177744000Y-78867000I-4120000J0D01*
G01*
X177744000Y-78867000D02*
G75*
G02*
X185984000Y-78867000I4120000J0D01*
G01*
%TO.C,D7*%
X177485000Y-103805000D02*
X177485000Y-106895000D01*
X177485000Y-103805170D02*
G75*
G02*
X183035000Y-105350000I2560000J-1544830D01*
G01*
X183035000Y-105350000D02*
G75*
G02*
X177485000Y-106894830I-2990000J0D01*
G01*
X182545000Y-105350000D02*
G75*
G02*
X177545000Y-105350000I-2500000J0D01*
G01*
X177545000Y-105350000D02*
G75*
G02*
X182545000Y-105350000I2500000J0D01*
G01*
%TO.C,R4*%
X166624000Y-85522000D02*
X166624000Y-86472000D01*
X166624000Y-91262000D02*
X166624000Y-90312000D01*
X165704000Y-90312000D02*
X167544000Y-90312000D01*
X167544000Y-86472000D01*
X165704000Y-86472000D01*
X165704000Y-90312000D01*
%TO.C,D3*%
X155430000Y-124695000D02*
X155430000Y-127785000D01*
X155430000Y-124695170D02*
G75*
G02*
X160980000Y-126240000I2560000J-1544830D01*
G01*
X160980000Y-126240000D02*
G75*
G02*
X155430000Y-127784830I-2990000J0D01*
G01*
X160490000Y-126240000D02*
G75*
G02*
X155490000Y-126240000I-2500000J0D01*
G01*
X155490000Y-126240000D02*
G75*
G02*
X160490000Y-126240000I2500000J0D01*
G01*
%TO.C,D10*%
X171875000Y-117745000D02*
X171875000Y-114655000D01*
X166325000Y-116200000D02*
G75*
G02*
X171875000Y-114655170I2990000J0D01*
G01*
X171875000Y-117744830D02*
G75*
G02*
X166325000Y-116200000I-2560000J1544830D01*
G01*
X171815000Y-116200000D02*
G75*
G02*
X166815000Y-116200000I-2500000J0D01*
G01*
X166815000Y-116200000D02*
G75*
G02*
X171815000Y-116200000I2500000J0D01*
G01*
%TO.C,RV3*%
X164806000Y-72551000D02*
X164806000Y-73646000D01*
X164806000Y-72551000D02*
X175046000Y-72551000D01*
X164806000Y-76498000D02*
X164806000Y-78647000D01*
X164806000Y-81497000D02*
X164806000Y-82592000D01*
X164806000Y-82592000D02*
X175046000Y-82592000D01*
X175046000Y-72551000D02*
X175046000Y-76147000D01*
X175046000Y-78997000D02*
X175046000Y-82592000D01*
%TO.C,D15*%
X142105000Y-68465000D02*
X142105000Y-65375000D01*
X136555000Y-66920000D02*
G75*
G02*
X142105000Y-65375170I2990000J0D01*
G01*
X142105000Y-68464830D02*
G75*
G02*
X136555000Y-66920000I-2560000J1544830D01*
G01*
X142045000Y-66920000D02*
G75*
G02*
X137045000Y-66920000I-2500000J0D01*
G01*
X137045000Y-66920000D02*
G75*
G02*
X142045000Y-66920000I2500000J0D01*
G01*
%TO.C,D12*%
X174245000Y-65375000D02*
X174245000Y-68465000D01*
X174245000Y-65375170D02*
G75*
G02*
X179795000Y-66920000I2560000J-1544830D01*
G01*
X179795000Y-66920000D02*
G75*
G02*
X174245000Y-68464830I-2990000J0D01*
G01*
X179305000Y-66920000D02*
G75*
G02*
X174305000Y-66920000I-2500000J0D01*
G01*
X174305000Y-66920000D02*
G75*
G02*
X179305000Y-66920000I2500000J0D01*
G01*
%TO.C,D14*%
X123038000Y-93095000D02*
X123038000Y-96185000D01*
X123038000Y-93095170D02*
G75*
G02*
X128588000Y-94640000I2560000J-1544830D01*
G01*
X128588000Y-94640000D02*
G75*
G02*
X123038000Y-96184830I-2990000J0D01*
G01*
X128098000Y-94640000D02*
G75*
G02*
X123098000Y-94640000I-2500000J0D01*
G01*
X123098000Y-94640000D02*
G75*
G02*
X128098000Y-94640000I2500000J0D01*
G01*
%TO.C,D4*%
X133485000Y-103805000D02*
X133485000Y-106895000D01*
X133485000Y-103805170D02*
G75*
G02*
X139035000Y-105350000I2560000J-1544830D01*
G01*
X139035000Y-105350000D02*
G75*
G02*
X133485000Y-106894830I-2990000J0D01*
G01*
X138545000Y-105350000D02*
G75*
G02*
X133545000Y-105350000I-2500000J0D01*
G01*
X133545000Y-105350000D02*
G75*
G02*
X138545000Y-105350000I2500000J0D01*
G01*
%TD*%
M02*
