M48
; DRILL file {KiCad 9.0.5} date 2026-01-21T13:47:08-0300
; FORMAT={-:-/ absolute / metric / decimal}
; #@! TF.CreationDate,2026-01-21T13:47:08-03:00
; #@! TF.GenerationSoftware,Kicad,Pcbnew,9.0.5
; #@! TF.FileFunction,Plated,1,2,PTH
FMAT,2
METRIC
; #@! TA.AperFunction,Plated,PTH,ComponentDrill
T1C0.700
; #@! TA.AperFunction,Plated,PTH,ViaDrill
T2C0.800
; #@! TA.AperFunction,Plated,PTH,ComponentDrill
T3C0.800
; #@! TA.AperFunction,Plated,PTH,ComponentDrill
T4C0.900
; #@! TA.AperFunction,Plated,PTH,ComponentDrill
T5C1.000
; #@! TA.AperFunction,Plated,PTH,ComponentDrill
T6C1.200
; #@! TA.AperFunction,Plated,PTH,ComponentDrill
T7C1.300
%
G90
G05
T1
X142.621Y-96.012
X142.621Y-103.632
X145.415Y-96.012
X145.415Y-103.632
X152.019Y-84.582
X159.639Y-84.582
X164.084Y-84.582
X164.084Y-92.202
X164.465Y-95.758
X166.624Y-84.582
X166.624Y-92.202
X172.085Y-95.758
X174.371Y-95.758
X174.371Y-98.298
X181.991Y-95.758
X181.991Y-98.298
T2
X146.558Y-75.311
X152.654Y-76.708
X154.051Y-97.663
X154.051Y-104.902
T3
X152.654Y-79.502
X155.194Y-79.502
X157.734Y-79.502
X171.363Y-86.392
X171.363Y-88.392
X171.363Y-90.392
X176.363Y-86.392
X176.363Y-88.392
X176.363Y-90.392
X181.864Y-77.117
X181.864Y-80.617
T4
X124.328Y-94.64
X124.338Y-82.169
X126.868Y-94.64
X126.878Y-82.169
X134.775Y-105.35
X137.315Y-105.35
X138.275Y-66.92
X140.815Y-66.92
X145.685Y-116.2
X148.225Y-116.2
X156.72Y-126.24
X157.221Y-70.104
X159.26Y-126.24
X159.761Y-70.104
X168.045Y-116.2
X170.585Y-116.2
X175.535Y-66.92
X178.075Y-66.92
X178.775Y-105.35
X180.472Y-88.011
X181.315Y-105.35
X183.012Y-88.011
X189.65Y-94.64
X189.793Y-82.227
X192.19Y-94.64
X192.333Y-82.227
T5
X151.257Y-89.027
X151.257Y-91.567
X151.257Y-94.107
X151.257Y-96.647
X158.877Y-89.027
X158.877Y-91.567
X158.877Y-94.107
X158.877Y-96.647
T6
X162.433Y-105.537
X165.933Y-105.537
T7
X138.826Y-88.693
X141.326Y-78.693
X143.826Y-88.693
X164.926Y-75.072
X164.926Y-80.072
X174.926Y-77.572
M30
