M48
; DRILL file {KiCad 9.0.5} date 2025-11-06T21:34:46-0300
; FORMAT={-:-/ absolute / metric / decimal}
; #@! TF.CreationDate,2025-11-06T21:34:46-03:00
; #@! TF.GenerationSoftware,Kicad,Pcbnew,9.0.5
; #@! TF.FileFunction,Plated,1,2,PTH
FMAT,2
METRIC
; #@! TA.AperFunction,Plated,PTH,ComponentDrill
T1C0.800
; #@! TA.AperFunction,Plated,PTH,ComponentDrill
T2C1.000
; #@! TA.AperFunction,Plated,PTH,ComponentDrill
T3C1.200
; #@! TA.AperFunction,Plated,PTH,ComponentDrill
T4C1.400
%
G90
G05
T1
X84.77Y-78.6
X85.1Y-72.05
X90.1Y-100.1
X90.15Y-93.2
X91.4Y-84.8
X92.1Y-100.1
X92.15Y-93.2
X93.4Y-84.8
X94.93Y-78.6
X95.26Y-72.05
X98.56Y-103.45
X98.56Y-105.45
X100.9Y-90.49
X100.9Y-98.11
X102.34Y-74.345
X102.34Y-81.965
X103.44Y-90.49
X103.44Y-98.11
X104.88Y-74.345
X104.88Y-81.965
X105.98Y-90.49
X105.98Y-98.11
X107.42Y-74.345
X107.42Y-81.965
X107.45Y-103.45
X107.45Y-105.45
X108.52Y-90.49
X108.52Y-98.11
X109.96Y-74.345
X109.96Y-81.965
X111.06Y-90.49
X111.06Y-98.11
X113.6Y-90.49
X113.6Y-98.11
X116.2Y-103.5
X116.2Y-105.5
X117.45Y-57.12
X117.45Y-67.28
X119.15Y-96.7
X119.97Y-85.55
X121.15Y-96.7
X127.4Y-96.7
X129.4Y-96.7
X130.13Y-85.55
X131.85Y-103.45
X131.85Y-105.45
X134.21Y-74.38
X134.21Y-82.0
X134.6Y-90.4
X134.6Y-98.02
X136.75Y-74.38
X136.75Y-82.0
X137.14Y-90.4
X137.14Y-98.02
X139.29Y-74.38
X139.29Y-82.0
X139.572Y-103.526
X139.572Y-105.526
X139.68Y-90.4
X139.68Y-98.02
X140.12Y-68.85
X141.83Y-74.38
X141.83Y-82.0
X142.22Y-90.4
X142.22Y-98.02
X144.76Y-90.4
X144.76Y-98.02
X147.3Y-90.4
X147.3Y-98.02
X147.8Y-74.4
X147.8Y-76.4
X147.8Y-103.542
X147.8Y-105.542
X150.28Y-68.85
X153.3Y-91.9
X153.35Y-98.05
X155.3Y-91.9
X155.35Y-98.05
T2
X119.85Y-80.7
X120.3Y-89.7
X126.6Y-89.75
X127.0Y-80.7
X160.7Y-92.05
T3
X99.7Y-58.65
X104.7Y-58.65
X109.7Y-58.65
X131.9Y-58.45
X136.9Y-58.45
X141.9Y-58.45
T4
X158.993Y-78.175
X158.993Y-83.175
M30
